<?xml version="1.0" encoding="utf-8"?>
<!-- Generator: Adobe Illustrator 28.0.0, SVG Export Plug-In . SVG Version: 6.00 Build 0)  -->
<svg version="1.1" id="Слой_1" xmlns="http://www.w3.org/2000/svg" xmlns:xlink="http://www.w3.org/1999/xlink" x="0px" y="0px"
	 viewBox="0 0 1000 329.2" style="enable-background:new 0 0 1000 329.2;" xml:space="preserve">
<style type="text/css">
	.st0{fill:#EA4335;}
	.st1{fill:#FBBC05;}
	.st2{fill:#4285F4;}
	.st3{fill:#34A853;}
</style>
<path class="st0" d="M427.9,173.2c0,47.4-37,82.3-82.5,82.3s-82.5-34.9-82.5-82.3c0-47.7,37-82.3,82.5-82.3S427.9,125.5,427.9,173.2
	z M391.8,173.2c0-29.6-21.5-49.8-46.4-49.8S299,143.6,299,173.2c0,29.3,21.5,49.8,46.4,49.8S391.8,202.5,391.8,173.2z"/>
<path class="st1" d="M606,173.2c0,47.4-37,82.3-82.5,82.3s-82.5-34.9-82.5-82.3c0-47.7,37-82.3,82.5-82.3S606,125.5,606,173.2z
	 M569.8,173.2c0-29.6-21.5-49.8-46.4-49.8S477,143.6,477,173.2c0,29.3,21.5,49.8,46.4,49.8S569.8,202.5,569.8,173.2z"/>
<path class="st2" d="M776.6,95.9v147.7c0,60.7-35.8,85.6-78.2,85.6c-39.9,0-63.9-26.7-72.9-48.5l31.4-13.1
	c5.6,13.4,19.3,29.2,41.4,29.2c27.1,0,43.9-16.7,43.9-48.2v-11.8H741c-8.1,10-23.7,18.7-43.3,18.7c-41.1,0-78.8-35.8-78.8-81.9
	c0-46.4,37.7-82.6,78.8-82.6c19.6,0,35.2,8.7,43.3,18.4h1.3V96L776.6,95.9L776.6,95.9z M744.8,173.5c0-29-19.3-50.1-43.9-50.1
	c-24.9,0-45.8,21.2-45.8,50.1c0,28.7,20.9,49.5,45.8,49.5C725.5,223.1,744.8,202.2,744.8,173.5z"/>
<path class="st3" d="M833.1,9.4v241.1h-35.2V9.4H833.1z"/>
<path class="st0" d="M970.4,200.3l28,18.7c-9,13.4-30.9,36.5-68.5,36.5c-46.7,0-81.6-36.1-81.6-82.3c0-48.9,35.2-82.3,77.6-82.3
	c42.7,0,63.6,34,70.4,52.3l3.7,9.3l-110,45.5c8.4,16.5,21.5,24.9,39.9,24.9C948.3,223.1,961.1,214,970.4,200.3L970.4,200.3z
	 M884.1,170.7l73.5-30.5c-4-10.3-16.2-17.4-30.5-17.4C908.7,122.8,883.2,139,884.1,170.7z"/>
<path class="st2" d="M129.5,151.8v-34.9h117.6c1.1,6.1,1.7,13.3,1.7,21.1c0,26.2-7.2,58.6-30.2,81.6c-22.4,23.4-51.1,35.8-89.1,35.8
	C59.2,255.5,0,198.1,0,127.7S59.2,0,129.6,0c38.9,0,66.7,15.3,87.5,35.2l-24.6,24.6c-14.9-14-35.2-24.9-62.9-24.9
	c-51.4,0-91.6,41.4-91.6,92.8s40.2,92.8,91.6,92.8c33.3,0,52.3-13.4,64.5-25.6c9.9-9.9,16.4-24,18.9-43.2L129.5,151.8z"/>
</svg>
