<svg width="367" height="106" xmlns="http://www.w3.org/2000/svg">
 <style type="text/css">.st0{fill:#FC3F1D;}</style>

 <g>
  <title>background</title>
  <rect fill="none" id="canvas_background" height="402" width="402" y="-1" x="-1"/>
 </g>
 <g>
  <title>Layer 1</title>
  <path fill="#f8fafc" d="m349.9,92.3c7.2,0 12.3,-1.3 16.1,-4.1l0,-12.7c-3.9,2.7 -8.6,4.4 -15.2,4.4c-11.1,0 -15.7,-8.6 -15.7,-22.2c0,-14.3 5.6,-21.6 15.8,-21.6c6,0 11.9,2.1 15,4.1l0,-13.2c-3.3,-1.8 -9,-3.1 -16.8,-3.1c-19.9,0 -30.2,14.3 -30.2,34.3c0.1,21.9 10.2,34.1 31,34.1zm-97.3,-5.8l0,-12.7c-4.8,3.3 -13,6.2 -20.5,6.2c-11.4,0 -15.7,-5.4 -16.4,-16.4l37.6,0l0,-8.2c0,-22.9 -10.1,-31.5 -25.6,-31.5c-19,0 -28,14.5 -28,34.4c0,22.9 11.3,34 31.1,34c9.9,0 17.2,-2.7 21.8,-5.8zm-142.7,-61.4l0,26l-20.8,0l0,-26l-15.6,0l0,65.9l15.6,0l0,-27.5l20.8,0l0,27.5l15.6,0l0,-65.9l-15.6,0zm85.9,53.5l-6.9,0l0,-53.5l-45.4,0l0,5.6c0,16.1 -1,36.9 -6.5,47.9l-5,0l0,27.4l14.4,0l0,-15l34.9,0l0,15l14.4,0l0,-27.4l0.1,0zm106.5,12.4l17.7,0l-25,-35.5l22,-30.4l-15.7,0l-22,30.4l0,-30.4l-15.6,0l0,65.9l15.6,0l0,-32.4l23,32.4zm-75,-54.9c7.7,0 10.1,6.4 10.1,14.7l0,1.3l-21.7,0c0.4,-10.5 4.2,-16 11.6,-16zm-54,42.5l-22,0c4.3,-9.9 5.5,-27.9 5.5,-39.3l0,-2l16.5,0l0,41.3z" id="Name"/>
  <path d="m60.5,91l-15.9,0l0,-78.7l-7.1,0c-13,0 -19.8,6.5 -19.8,16.2c0,11 4.7,16.1 14.4,22.6l8,5.4l-23,34.5l-17.1,0l20.7,-30.8c-11.9,-8.5 -18.6,-16.8 -18.6,-30.8c0,-17.5 12.2,-29.4 35.3,-29.4l23,0l0,91l0.1,0z" class="st0" id="Glyph"/>
 </g>
</svg>